<svg xmlns="http://www.w3.org/2000/svg" viewBox="0 0 3296 1496"><title>Manjelo Burger</title><path fill="#FBEFE4" transform="translate(0.000000,1496.000000) scale(0.100000,-0.100000)" d="M30220 14769 c-321 -19 -659 -81 -818 -150 -23 -11 -48 -19 -55 -19
-16 0 -215 -99 -223 -111 -3 -5 -12 -9 -20 -9 -9 0 -39 -19 -69 -42 -29 -24
-68 -54 -86 -68 -183 -137 -362 -420 -447 -705 -73 -244 -104 -442 -132 -855
-12 -162 -12 -2845 0 -3015 44 -675 140 -1025 369 -1345 51 -71 223 -250 241
-250 5 0 15 -6 22 -13 44 -42 306 -187 338 -187 5 0 29 -8 52 -19 74 -32 322
-101 365 -101 16 0 73 -9 128 -19 202 -39 743 -62 974 -42 69 6 189 15 267 21
77 5 153 14 170 20 16 6 65 14 109 19 44 5 100 16 125 24 25 8 65 20 90 26 96
26 146 42 177 56 17 8 34 15 38 15 27 0 219 106 237 131 14 18 31 29 46 29 60
0 230 170 377 377 23 33 90 163 110 213 53 140 115 337 115 369 0 13 9 60 19
105 11 44 25 131 32 191 6 61 15 139 20 175 10 83 10 3332 0 3425 -24 209 -33
275 -41 320 -6 28 -17 86 -25 130 -8 44 -22 97 -30 118 -8 20 -15 47 -15 60
-1 12 -9 40 -20 62 -11 22 -19 46 -20 54 -1 45 -150 324 -217 406 -68 83 -120
138 -174 184 -96 80 -111 91 -131 91 -10 0 -33 15 -52 33 -18 17 -64 47 -102
66 -38 18 -81 39 -96 47 -14 8 -32 14 -40 14 -7 1 -31 9 -53 20 -22 11 -47 19
-57 20 -9 0 -40 9 -70 19 -29 10 -78 24 -108 30 -54 12 -80 17 -250 47 -191
35 -738 52 -1070 33z m519 -1600 c41 -11 82 -26 91 -34 9 -8 21 -15 27 -15 19
0 97 -86 120 -131 100 -204 105 -292 101 -1799 l-4 -1205 -18 -100 c-21 -118
-63 -260 -82 -276 -8 -6 -14 -16 -14 -22 0 -20 -74 -99 -102 -109 -15 -5 -28
-14 -28 -18 0 -21 -147 -53 -245 -53 -105 0 -231 29 -256 59 -6 8 -17 14 -23
14 -20 0 -84 69 -113 123 -41 75 -70 175 -87 307 -25 179 -24 2598 0 2780 25
189 66 299 143 382 91 100 310 143 490 97z M365 14631 c-3 -6 -10 -146 -15
-313 -6 -167 -13 -313 -15 -325 -3 -13 -10 -294 -15 -625 -6 -332 -15 -673
-20 -758 -5 -85 -14 -411 -20 -725 -5 -313 -14 -646 -20 -740 -6 -93 -15 -426
-20 -740 -6 -313 -15 -649 -20 -745 -6 -96 -15 -427 -20 -735 -6 -308 -14
-636 -20 -730 -13 -232 -14 -220 15 -233 33 -15 1657 -17 1684 -2 27 14 30 72
41 667 6 290 14 596 20 678 6 83 15 382 20 666 5 283 15 587 20 675 6 87 13
353 16 589 5 468 11 615 25 615 5 0 9 -20 9 -45 0 -24 9 -84 21 -132 11 -48
24 -144 30 -213 5 -69 15 -161 23 -205 8 -44 15 -107 16 -140 0 -33 9 -111 20
-174 11 -62 20 -142 20 -177 0 -34 7 -96 15 -136 9 -40 20 -129 25 -198 6 -69
14 -143 20 -165 5 -22 12 -85 16 -140 3 -55 12 -134 20 -175 8 -41 19 -133 24
-203 5 -71 14 -146 20 -167 6 -21 14 -98 20 -171 5 -74 14 -152 20 -174 5 -22
14 -98 20 -170 5 -71 15 -146 20 -165 6 -19 13 -84 17 -143 l6 -109 26 -9 c36
-14 704 -13 730 1 27 14 38 62 45 195 3 61 10 126 16 145 5 19 14 91 20 160 5
69 16 158 25 198 8 40 15 103 15 140 1 37 7 103 15 147 8 44 19 134 25 200 5
66 16 153 25 193 8 40 15 103 15 140 1 37 7 101 15 142 9 41 19 134 25 205 5
72 14 146 20 165 6 19 15 95 20 168 6 74 17 164 24 200 8 37 17 114 20 172 4
58 11 123 16 145 6 22 15 101 20 176 10 146 15 169 35 169 26 0 33 -126 45
-830 5 -305 14 -625 20 -710 5 -85 14 -414 20 -730 5 -316 12 -602 16 -635 3
-33 11 -235 17 -450 l12 -390 855 0 855 0 -1 385 c0 212 -6 480 -13 595 -6
116 -16 458 -21 760 -6 303 -14 629 -20 725 -5 96 -14 432 -20 745 -5 314 -14
647 -20 740 -6 94 -15 424 -20 735 -5 311 -14 641 -20 734 -6 93 -14 412 -19
708 -7 442 -11 542 -22 549 -8 5 -464 9 -1020 9 l-1006 0 -15 -17 c-11 -13
-17 -50 -21 -123 -4 -58 -11 -121 -17 -140 -6 -19 -15 -86 -20 -148 -6 -63
-17 -140 -25 -172 -8 -32 -15 -83 -15 -114 0 -30 -9 -102 -20 -158 -11 -57
-20 -125 -20 -153 0 -27 -7 -79 -15 -115 -8 -36 -20 -114 -25 -175 -5 -60 -16
-141 -25 -180 -8 -38 -15 -92 -15 -120 0 -27 -9 -92 -20 -144 -11 -52 -20
-119 -20 -150 -1 -31 -7 -87 -16 -126 -8 -38 -19 -117 -24 -175 -5 -58 -16
-134 -24 -170 -9 -36 -16 -87 -16 -115 0 -77 -19 -177 -39 -209 -25 -38 -31
-24 -37 81 -3 49 -14 134 -25 191 -10 57 -19 126 -19 155 0 29 -9 95 -20 147
-11 52 -20 120 -20 150 0 30 -7 84 -16 120 -8 36 -19 112 -24 170 -5 58 -16
137 -24 175 -9 39 -15 96 -16 129 0 32 -7 84 -15 115 -8 32 -19 108 -24 169
-6 62 -15 129 -21 150 -5 22 -14 90 -20 153 -5 63 -14 129 -19 148 -6 19 -15
86 -21 150 -5 64 -14 132 -20 151 -6 19 -13 73 -15 120 -6 89 -22 183 -37 213
l-9 17 -1014 0 c-624 0 -1016 -4 -1020 -9z M6805 14628 c-16 -44 -45 -177 -45
-208 0 -20 -9 -70 -20 -111 -11 -41 -20 -90 -20 -109 0 -19 -7 -62 -16 -95 -9
-33 -20 -96 -24 -140 -5 -44 -16 -100 -24 -124 -9 -24 -16 -62 -16 -85 0 -22
-9 -77 -20 -121 -11 -44 -20 -96 -20 -115 0 -20 -9 -68 -20 -108 -11 -39 -20
-89 -20 -110 0 -21 -9 -72 -20 -113 -11 -41 -20 -90 -20 -109 0 -19 -7 -62
-16 -95 -9 -33 -20 -96 -24 -140 -5 -44 -16 -100 -24 -124 -9 -24 -16 -62 -16
-85 0 -22 -9 -77 -20 -121 -11 -44 -20 -96 -20 -115 0 -20 -9 -68 -20 -108
-11 -39 -20 -89 -20 -110 0 -21 -9 -72 -20 -113 -11 -41 -20 -90 -20 -109 0
-19 -7 -62 -16 -95 -9 -33 -20 -96 -24 -140 -5 -44 -16 -100 -24 -124 -9 -24
-16 -62 -16 -85 0 -22 -9 -77 -20 -121 -11 -44 -20 -96 -20 -115 0 -20 -9 -68
-20 -108 -11 -39 -20 -89 -20 -110 0 -21 -9 -72 -20 -113 -11 -41 -20 -90 -20
-109 0 -19 -7 -62 -16 -95 -9 -33 -20 -96 -24 -140 -5 -44 -16 -100 -24 -124
-9 -24 -16 -62 -16 -85 0 -22 -9 -77 -20 -121 -11 -44 -20 -96 -20 -115 0 -20
-9 -68 -20 -108 -11 -39 -20 -89 -20 -110 0 -21 -9 -72 -20 -113 -11 -41 -20
-90 -20 -109 0 -19 -7 -62 -16 -95 -9 -33 -20 -96 -24 -140 -5 -44 -16 -100
-24 -124 -9 -24 -16 -62 -16 -85 0 -22 -9 -77 -20 -121 -11 -44 -20 -96 -20
-115 0 -20 -9 -68 -20 -108 -11 -39 -20 -89 -20 -110 0 -21 -9 -72 -20 -113
-11 -41 -20 -90 -20 -109 0 -19 -7 -62 -16 -95 -9 -33 -20 -96 -24 -140 -5
-44 -16 -100 -24 -124 -9 -24 -16 -61 -16 -83 0 -22 -7 -71 -16 -108 -9 -38
-14 -75 -11 -84 l6 -16 865 0 c500 0 875 4 889 9 l24 9 6 89 c3 48 13 120 21
158 9 39 16 95 16 125 1 30 8 89 16 130 8 41 19 124 24 183 5 59 14 125 20
145 6 20 15 89 20 152 5 63 16 147 25 185 8 39 15 95 15 125 1 77 25 199 41
214 20 18 95 46 125 46 13 0 41 7 62 16 20 9 60 19 87 24 28 5 70 15 95 23 88
30 187 57 209 57 12 0 35 7 50 15 16 8 48 17 72 21 24 3 66 15 92 25 27 11 65
19 85 17 l37 -3 18 -70 c9 -38 22 -122 27 -186 5 -64 14 -129 20 -144 6 -15
13 -68 16 -119 3 -50 15 -134 25 -188 10 -53 19 -120 19 -150 0 -29 7 -80 15
-113 8 -33 17 -100 21 -150 3 -49 12 -120 20 -157 7 -36 18 -113 24 -170 5
-56 18 -150 28 -208 l19 -105 869 -3 c969 -2 914 -6 895 64 -6 21 -11 60 -11
85 0 26 -7 66 -15 89 -8 24 -19 79 -25 124 -5 45 -16 106 -25 136 -8 30 -15
71 -15 91 0 20 -9 71 -20 114 -11 43 -20 92 -20 109 0 17 -9 67 -20 111 -11
44 -20 97 -20 118 0 20 -9 70 -20 109 -11 40 -20 93 -20 119 0 26 -7 66 -15
90 -9 24 -18 71 -22 104 -3 33 -14 93 -24 134 -11 41 -19 91 -19 111 0 20 -9
72 -20 115 -11 43 -20 92 -20 109 0 17 -9 67 -20 111 -11 44 -20 97 -20 118 0
20 -9 70 -20 109 -11 40 -20 93 -20 119 0 26 -7 66 -15 89 -8 24 -19 79 -25
124 -5 45 -16 106 -25 136 -8 30 -15 71 -15 91 0 20 -9 71 -20 114 -11 43 -20
92 -20 109 0 17 -9 67 -20 111 -11 44 -20 97 -20 118 0 20 -9 70 -20 109 -11
40 -20 93 -20 119 0 26 -7 66 -15 89 -8 24 -19 79 -25 124 -5 45 -16 106 -25
136 -8 30 -15 71 -15 91 0 20 -9 71 -20 114 -11 43 -20 92 -20 109 0 17 -9 67
-20 111 -11 44 -20 99 -20 121 0 23 -7 61 -16 85 -8 24 -19 82 -24 129 -5 47
-16 110 -25 140 -8 30 -15 70 -15 90 0 19 -9 69 -20 110 -11 41 -20 91 -20
111 0 20 -9 71 -20 114 -11 43 -20 92 -20 109 0 17 -9 67 -20 111 -11 44 -20
99 -20 121 0 23 -7 61 -16 85 -8 24 -19 82 -24 129 -5 47 -16 110 -25 140 -8
30 -15 70 -15 90 0 19 -9 69 -20 110 -11 41 -20 91 -20 111 0 20 -9 71 -20
114 -11 43 -20 92 -20 109 0 18 -7 59 -16 91 -8 33 -18 87 -22 120 l-7 60
-1273 3 c-1013 2 -1274 0 -1277 -10z m1304 -1658 c6 -36 11 -86 11 -112 0 -25
9 -92 20 -148 11 -56 20 -127 20 -158 0 -31 9 -100 20 -152 11 -52 20 -123 20
-157 0 -34 7 -88 15 -120 8 -32 19 -110 25 -173 5 -63 14 -131 20 -150 6 -19
13 -80 16 -135 3 -55 12 -125 20 -156 7 -30 18 -107 24 -170 5 -63 14 -130 20
-149 17 -59 13 -70 -32 -90 -24 -11 -55 -20 -70 -20 -15 0 -50 -9 -78 -20 -28
-11 -64 -20 -81 -20 -16 0 -44 -7 -60 -16 -17 -8 -53 -18 -82 -21 -29 -3 -62
-12 -75 -20 -13 -8 -33 -13 -45 -11 l-22 3 3 85 c2 47 11 121 19 165 8 44 19
129 23 188 5 59 14 125 20 145 6 20 15 89 20 152 5 63 16 147 25 185 8 39 15
93 15 120 1 28 7 84 16 125 8 41 19 126 24 187 5 62 14 129 20 150 6 21 15 92
20 158 6 66 15 136 20 155 6 19 15 90 20 158 5 68 13 128 16 134 12 19 43 -46
53 -112z M10805 14628 c-3 -7 -4 -1511 -3 -3343 l3 -3330 849 -3 c619 -1 852
1 862 9 12 10 14 270 14 1580 0 1039 3 1569 10 1569 6 0 10 -15 10 -32 0 -18
10 -53 21 -78 11 -24 24 -78 29 -118 6 -41 17 -97 25 -125 8 -28 15 -62 15
-76 0 -14 8 -64 19 -111 11 -47 24 -107 29 -135 16 -86 32 -167 52 -260 19
-91 34 -168 52 -260 5 -27 18 -90 28 -140 19 -90 34 -167 52 -260 5 -27 18
-90 28 -140 19 -90 34 -167 52 -260 5 -27 18 -90 28 -140 18 -88 32 -159 51
-260 5 -27 18 -90 29 -140 10 -49 23 -115 29 -145 17 -94 31 -162 51 -250 10
-47 22 -111 25 -142 11 -96 -89 -88 1056 -88 834 0 1008 2 1018 14 8 10 10
889 9 3342 l-3 3329 -860 0 -860 0 -5 -1600 c-3 -880 -6 -1601 -8 -1602 -11
-13 -22 5 -26 45 -4 26 -15 88 -25 137 -19 87 -33 154 -53 260 -5 28 -18 87
-29 131 -10 45 -19 95 -19 110 0 16 -9 58 -20 92 -11 35 -20 80 -20 100 0 21
-9 66 -20 100 -11 35 -20 80 -20 100 0 21 -9 66 -20 100 -11 35 -20 80 -20
100 0 21 -9 66 -20 100 -11 35 -20 81 -20 102 0 21 -7 54 -15 74 -8 20 -18 64
-21 99 -4 34 -15 88 -25 119 -11 32 -19 77 -19 100 -1 24 -9 68 -20 98 -11 30
-19 77 -20 103 0 26 -7 62 -16 78 -8 17 -18 63 -21 102 -3 40 -11 83 -18 97
-7 14 -16 48 -20 75 -3 28 -15 88 -25 135 -18 81 -31 145 -52 255 -5 28 -18
88 -29 135 -11 47 -19 97 -19 111 0 35 -30 132 -44 141 -21 14 -2026 9 -2031
-4z M18263 14633 c-10 -4 -13 -472 -13 -2291 -1 -2276 -4 -2501 -34 -2560 -9
-17 -16 -43 -16 -57 0 -66 -97 -212 -171 -258 -140 -85 -397 -82 -536 6 -49
32 -132 128 -133 154 -1 4 -9 26 -20 48 -11 22 -19 50 -20 61 0 12 -8 41 -17
65 l-18 44 -5 675 -5 675 -860 0 -860 0 1 -805 c1 -499 5 -830 12 -870 6 -36
16 -108 22 -160 52 -425 198 -782 417 -1019 76 -83 210 -193 273 -224 8 -5 33
-19 55 -32 22 -14 51 -30 65 -36 14 -6 42 -19 62 -30 20 -10 43 -19 50 -19 7
0 26 -7 42 -15 16 -9 46 -20 65 -25 20 -5 56 -15 81 -24 41 -13 84 -25 180
-47 36 -8 128 -23 240 -39 226 -32 733 -49 925 -31 66 6 181 15 255 21 74 5
164 16 200 24 36 9 81 16 100 16 20 0 61 9 93 20 31 11 69 20 84 20 16 1 46 9
68 20 22 11 49 20 60 20 11 0 38 9 60 20 22 11 46 19 53 20 11 0 60 23 112 52
8 4 33 17 55 28 192 98 387 282 502 475 30 51 113 224 113 237 0 7 6 22 14 33
13 18 25 58 56 175 7 25 19 67 27 93 7 26 18 85 24 130 5 45 16 105 24 134 8
28 15 80 15 114 0 35 7 138 15 229 14 144 15 473 13 2550 l-3 2385 -855 2
c-470 1 -861 -1 -867 -4z M20512 14628 c-9 -9 -12 -762 -12 -3328 l0 -3317 18
-16 19 -17 1809 2 1809 3 3 770 c1 424 0 780 -3 793 l-5 22 -950 0 -949 0 -11
20 c-7 13 -9 170 -8 467 l3 448 39 18 c21 10 62 22 90 27 28 5 68 16 88 24 21
9 51 16 68 16 17 0 44 7 59 15 16 8 57 21 92 29 99 23 149 36 214 57 33 10 70
19 82 19 12 0 45 9 73 20 28 11 64 20 81 20 16 0 43 7 58 15 16 8 57 21 92 29
99 23 149 36 214 57 33 10 70 19 82 19 12 0 45 9 73 20 28 11 64 20 79 20 16
0 48 9 72 19 24 10 65 22 91 25 26 4 50 11 53 15 7 12 -14 116 -36 179 -11 29
-19 67 -19 85 0 18 -6 42 -14 53 -8 11 -17 38 -21 60 -4 21 -15 65 -26 97 -10
31 -19 66 -19 77 0 10 -9 42 -20 70 -11 28 -20 64 -20 79 0 16 -9 48 -20 72
-11 24 -20 62 -20 84 0 22 -7 48 -15 59 -8 10 -17 39 -21 65 -4 25 -15 68 -25
94 -11 26 -19 59 -19 72 0 13 -9 47 -20 75 -11 28 -20 64 -20 81 0 38 -23 47
-61 25 -16 -9 -52 -19 -81 -23 -29 -3 -62 -11 -74 -18 -11 -8 -45 -18 -75 -24
-30 -5 -74 -17 -98 -25 -24 -9 -53 -16 -65 -16 -11 0 -45 -9 -74 -20 -29 -11
-62 -20 -75 -20 -12 0 -46 -9 -75 -20 -29 -11 -66 -20 -83 -20 -17 0 -43 -7
-57 -15 -15 -8 -56 -21 -92 -29 -94 -21 -147 -35 -215 -57 -33 -10 -70 -19
-82 -19 -11 0 -46 -10 -77 -21 -93 -36 -87 -77 -84 550 l3 546 915 5 c503 3
916 6 918 8 1 1 2 357 2 791 l0 789 -16 6 c-33 13 -3529 7 -3542 -6z M24583
14633 c-10 -4 -13 -680 -13 -3334 l0 -3329 26 -10 c16 -7 673 -9 1832 -8
l1807 3 3 770 c1 424 0 780 -3 793 l-5 22 -953 0 c-728 0 -956 3 -965 12 -9 9
-12 587 -12 2538 0 1951 -3 2529 -12 2538 -12 12 -1676 17 -1705 5z M18720
7113 c-25 -2 -88 -10 -141 -18 -53 -8 -113 -15 -133 -15 -21 0 -76 -9 -124
-19 -48 -11 -107 -24 -132 -29 -136 -31 -234 -63 -360 -121 -25 -11 -56 -25
-70 -31 -14 -6 -43 -22 -65 -35 -22 -14 -51 -30 -65 -37 -97 -47 -390 -342
-390 -392 0 -3 -10 -20 -22 -38 -40 -59 -138 -268 -138 -296 -1 -9 -9 -35 -20
-57 -11 -22 -19 -49 -20 -59 0 -11 -9 -49 -19 -85 -11 -36 -29 -120 -40 -186
-19 -110 -27 -177 -51 -425 -12 -120 -12 -3096 0 -3310 23 -412 43 -601 82
-755 5 -22 16 -67 24 -101 7 -33 20 -74 29 -90 8 -16 15 -35 15 -43 0 -23 76
-182 121 -251 16 -25 33 -54 38 -65 15 -31 190 -196 255 -240 67 -46 66 -45
126 -72 115 -52 141 -63 153 -63 6 0 34 -9 62 -19 27 -11 73 -24 100 -29 28
-6 68 -15 90 -21 22 -5 83 -15 135 -21 52 -6 133 -16 179 -21 143 -17 722 -7
806 15 120 31 183 54 248 93 27 15 58 33 69 40 11 6 51 43 88 82 37 39 70 71
73 71 3 0 8 -42 9 -92 l3 -93 860 0 860 0 3 1705 c1 938 0 1715 -3 1728 l-6
23 -267 -7 c-147 -3 -667 -9 -1157 -13 l-890 -6 -3 -668 c-1 -467 1 -674 9
-688 l11 -21 279 8 279 7 6 -17 c21 -54 -41 -337 -90 -415 -28 -44 -104 -121
-121 -121 -5 0 -23 -7 -40 -16 -74 -39 -397 -41 -463 -3 -18 10 -39 19 -46 19
-22 0 -100 91 -125 145 -12 28 -27 58 -32 68 -12 23 -36 166 -50 303 -6 65 -9
562 -6 1395 l3 1294 17 60 c9 33 17 76 17 95 0 19 9 53 20 75 11 22 19 46 20
53 1 34 92 146 128 157 12 3 22 10 22 15 0 5 26 21 57 36 l57 27 152 0 c135 0
156 -2 196 -21 24 -12 49 -22 54 -22 38 0 174 -168 174 -215 0 -9 7 -29 15
-46 32 -61 48 -251 54 -639 l6 -375 860 0 860 0 0 545 c-1 464 -3 562 -18 658
-9 62 -17 134 -17 161 0 26 -9 83 -20 126 -11 43 -20 91 -20 107 0 16 -9 54
-20 85 -11 32 -20 66 -20 78 -1 11 -9 38 -20 60 -11 22 -19 48 -20 57 0 30
-124 290 -146 309 -8 6 -14 16 -14 21 0 54 -275 334 -390 397 -265 145 -387
188 -695 251 -81 16 -141 24 -385 51 -72 7 -756 9 -850 2z M2400 6961 c-7 -14
-9 -1065 -8 -3348 l3 -3328 1335 -3 c1673 -3 1881 6 2165 99 33 10 66 19 74
19 8 0 35 10 60 21 198 92 294 150 394 239 52 47 177 191 177 204 0 3 11 22
25 42 60 88 175 362 175 417 0 9 7 36 15 60 13 40 24 107 56 340 18 130 6
1047 -14 1122 -9 33 -17 78 -17 100 0 22 -9 64 -20 93 -11 29 -20 60 -20 70
-1 9 -9 35 -20 57 -11 22 -19 45 -20 52 0 13 -34 79 -65 128 -77 120 -170 194
-346 274 -25 12 -54 21 -64 21 -10 0 -48 9 -84 21 -36 12 -72 23 -78 25 -19 5
-16 24 5 30 182 54 367 269 434 504 70 242 73 277 73 840 0 440 -2 519 -18
615 -33 197 -61 325 -82 366 -8 15 -15 35 -15 43 0 20 -76 188 -113 251 -87
146 -223 291 -355 377 -93 60 -104 67 -132 79 -14 6 -43 19 -65 29 -107 48
-176 71 -280 92 -27 5 -77 16 -110 25 -150 37 -381 43 -1742 43 l-1312 0 -11
-19z m2210 -1591 c144 -30 237 -96 276 -198 36 -92 23 -365 -20 -421 -21 -27
-91 -64 -145 -77 -75 -17 -133 -32 -211 -54 -87 -25 -145 -39 -205 -52 -27 -6
-73 -20 -102 -31 -89 -35 -83 -64 -83 416 0 233 3 427 7 431 15 15 396 4 483
-14z m410 -2326 c108 -36 130 -117 130 -474 0 -281 -18 -439 -54 -479 -9 -10
-16 -24 -16 -32 0 -30 -69 -96 -128 -122 -120 -54 -151 -58 -503 -55 l-324 3
-3 484 c-2 511 -2 511 44 511 13 0 46 9 74 20 28 11 64 20 81 20 16 0 43 7 58
15 16 8 57 21 92 29 75 17 129 31 219 57 164 46 242 52 330 23z M7246 6964
c-9 -25 -6 -4684 4 -4824 21 -316 44 -501 81 -670 31 -137 41 -175 54 -201 8
-15 15 -36 15 -46 0 -10 6 -30 14 -45 8 -14 19 -41 25 -60 12 -37 76 -166 105
-213 37 -58 71 -110 81 -122 129 -157 282 -290 405 -350 14 -7 32 -17 40 -21
8 -5 38 -19 65 -32 28 -12 67 -31 87 -41 20 -11 45 -19 55 -19 10 -1 36 -9 58
-20 22 -11 49 -19 60 -20 12 0 46 -9 78 -20 31 -11 68 -20 81 -20 14 0 63 -9
108 -19 46 -11 130 -25 188 -31 58 -6 146 -15 195 -21 143 -16 854 -6 995 14
222 33 341 54 405 73 28 8 73 21 100 28 124 34 405 157 405 177 0 4 10 11 23
15 91 29 354 304 429 449 8 17 27 53 41 80 57 112 104 243 146 410 20 77 50
251 62 350 6 55 15 129 20 165 9 75 12 5010 3 5034 l-6 16 -848 0 -848 0 -6
-16 c-4 -9 -6 -1016 -7 -2238 0 -1256 -4 -2273 -9 -2341 -12 -159 -36 -302
-55 -331 -8 -13 -15 -31 -15 -41 0 -45 -88 -165 -129 -178 -12 -3 -21 -10 -21
-15 0 -5 -26 -21 -57 -36 l-58 -28 -150 0 -150 0 -56 27 c-32 15 -62 34 -69
42 -7 8 -19 15 -26 15 -41 0 -130 158 -155 275 -39 185 -39 161 -39 2543 0
1555 -3 2289 -10 2303 l-11 19 -848 0 -849 0 -6 -16z M12205 6958 c-3 -13 -4
-1519 -3 -3348 l3 -3325 849 -3 c468 -1 854 2 858 6 5 5 8 490 8 1078 0 599 4
1075 9 1083 14 22 24 9 90 -126 34 -70 71 -145 82 -165 10 -20 19 -43 19 -51
0 -8 9 -24 20 -37 11 -13 20 -29 20 -37 0 -12 21 -58 52 -113 4 -8 13 -26 19
-40 6 -14 15 -32 20 -40 5 -8 14 -26 20 -40 6 -14 15 -32 20 -40 5 -8 14 -26
20 -40 6 -14 37 -79 69 -145 32 -66 88 -183 125 -260 37 -77 73 -151 80 -165
7 -14 15 -37 19 -53 3 -15 11 -27 16 -27 5 0 14 -18 20 -40 6 -22 15 -40 20
-40 4 0 12 -15 16 -32 3 -18 15 -44 25 -57 11 -13 19 -30 19 -38 0 -8 9 -26
20 -40 11 -14 20 -34 20 -43 0 -10 7 -23 15 -30 8 -6 17 -22 20 -33 3 -12 33
-76 65 -142 32 -66 71 -147 86 -180 15 -33 36 -72 47 -88 l18 -27 912 2 912 3
3 33 c2 21 -4 41 -17 58 -12 15 -21 33 -21 41 0 8 -9 26 -20 40 -11 14 -20 32
-20 40 0 8 -9 26 -20 40 -11 14 -20 32 -20 40 0 8 -9 26 -20 40 -11 14 -20 32
-20 40 0 8 -9 26 -20 40 -11 14 -20 32 -20 40 0 8 -9 26 -20 40 -11 14 -20 32
-20 40 0 8 -9 26 -20 40 -11 14 -20 34 -20 43 0 10 -7 23 -15 30 -8 6 -17 22
-20 33 -4 12 -70 150 -147 307 -136 278 -148 301 -167 338 -62 115 -408 831
-416 860 -4 12 -10 22 -15 22 -5 0 -14 18 -20 40 -6 22 -15 40 -20 40 -5 0
-14 18 -20 40 -6 22 -15 40 -20 40 -5 0 -14 18 -20 40 -6 22 -15 40 -20 40 -6
0 -10 6 -10 14 0 7 -11 34 -25 60 -14 26 -25 52 -25 57 0 6 -9 22 -20 36 -11
14 -20 32 -20 40 0 8 -9 26 -20 40 -11 14 -20 32 -20 40 0 8 -9 26 -20 40 -11
14 -20 32 -20 40 0 7 -10 27 -22 44 -30 40 -18 58 58 83 32 10 77 27 100 38
23 10 46 18 52 18 18 0 149 74 234 132 100 69 240 218 306 328 32 54 112 219
112 233 1 6 9 30 20 52 11 22 19 50 20 62 0 12 9 45 20 73 11 28 20 63 20 78
0 15 7 55 16 87 57 218 58 1210 1 1455 -8 36 -20 88 -25 115 -15 71 -40 155
-57 192 -8 17 -15 36 -15 42 0 15 -78 176 -109 226 -87 138 -213 270 -333 350
-74 50 -232 135 -252 135 -6 1 -29 9 -51 20 -22 11 -50 19 -63 20 -13 0 -36 7
-52 15 -16 8 -60 19 -97 25 -38 5 -96 16 -128 24 -96 23 -447 41 -474 25 -17
-11 -25 -11 -41 -1 -15 9 -291 12 -1265 12 l-1245 0 -5 -22z m2205 -1584 c163
-34 236 -99 286 -251 l25 -78 -3 -235 c-3 -192 -6 -241 -19 -270 -10 -19 -22
-46 -28 -60 -30 -65 -92 -138 -138 -163 -82 -45 -148 -77 -159 -77 -6 0 -31
-9 -55 -20 -24 -11 -60 -20 -79 -20 -20 0 -45 -6 -56 -14 -11 -8 -38 -17 -60
-21 -21 -3 -69 -16 -106 -27 -107 -34 -98 -89 -98 603 0 364 4 608 10 623 l10
26 197 0 c144 0 219 -4 273 -16z M21885 6958 c-3 -13 -4 -1519 -3 -3348 l3
-3325 1820 0 1820 0 0 795 0 795 -960 5 -960 5 -3 464 c-2 496 -3 491 48 491
15 0 45 7 66 16 20 9 58 20 83 24 25 5 64 15 86 24 22 8 56 15 75 16 20 0 45
6 56 14 11 8 44 19 74 24 30 6 75 18 99 26 24 9 54 16 66 16 12 0 40 7 61 16
20 9 58 20 83 24 25 5 64 15 86 24 22 8 56 15 75 16 20 0 45 6 56 14 11 8 44
19 74 24 30 6 75 18 99 26 24 9 54 16 66 16 12 0 40 7 61 16 20 9 58 20 83 24
25 5 64 15 86 24 22 8 56 15 75 16 20 0 45 6 56 14 11 8 37 18 58 21 46 9 53
23 31 65 -9 17 -19 54 -22 83 -3 29 -11 61 -18 73 -8 12 -17 39 -20 60 -4 21
-15 66 -25 99 -24 82 -40 141 -52 200 -6 28 -19 71 -29 97 -11 26 -19 64 -19
85 0 21 -7 46 -15 57 -8 10 -17 39 -21 65 -4 25 -15 68 -25 94 -11 26 -19 59
-19 72 0 13 -9 47 -20 75 -11 28 -20 65 -21 83 0 18 -10 52 -22 77 l-23 45
-54 -4 c-30 -2 -67 -9 -81 -17 -15 -7 -55 -20 -90 -28 -99 -23 -149 -36 -214
-57 -33 -10 -70 -19 -82 -19 -12 0 -45 -9 -73 -20 -28 -11 -64 -20 -79 -20
-16 0 -48 -9 -72 -20 -24 -11 -60 -20 -79 -20 -20 0 -53 -9 -75 -20 -22 -11
-52 -20 -67 -20 -15 0 -50 -9 -78 -20 -28 -11 -62 -20 -75 -20 -13 0 -46 -8
-72 -19 -26 -10 -73 -20 -103 -22 l-55 -4 -3 535 c-1 294 0 545 3 557 l5 23
913 2 912 3 3 770 c1 424 0 780 -3 793 l-5 22 -1770 0 -1770 0 -5 -22z M25960
6961 c-7 -14 -9 -1065 -8 -3348 l3 -3328 860 0 860 0 5 1079 c4 851 8 1080 17
1083 7 3 16 -4 19 -14 6 -21 13 -36 122 -263 44 -91 82 -177 86 -192 3 -16 11
-28 16 -28 5 0 14 -18 20 -40 6 -22 15 -40 20 -40 4 0 12 -15 16 -33 3 -17 15
-43 25 -56 11 -13 19 -30 19 -38 0 -8 9 -26 20 -40 11 -14 20 -32 20 -40 0 -8
9 -26 20 -40 11 -14 20 -33 20 -42 0 -9 9 -27 20 -41 11 -14 20 -30 20 -37 0
-6 18 -47 40 -90 22 -43 76 -154 120 -248 44 -93 89 -187 100 -207 11 -20 20
-43 20 -51 0 -8 9 -24 20 -37 11 -13 20 -29 20 -37 0 -12 21 -58 52 -113 4 -8
13 -26 19 -40 6 -14 15 -32 20 -40 5 -8 14 -26 20 -40 6 -14 15 -32 20 -40 5
-8 12 -23 16 -33 3 -10 25 -57 49 -104 24 -47 44 -92 44 -99 0 -45 -11 -44
958 -44 997 0 949 -3 903 56 -12 15 -21 33 -21 41 0 8 -9 26 -20 40 -11 14
-20 32 -20 40 0 8 -9 26 -20 40 -11 14 -20 34 -20 43 0 10 -7 23 -15 30 -8 6
-17 22 -20 33 -4 12 -69 148 -145 302 -76 154 -220 447 -320 650 -99 204 -190
387 -200 407 -11 20 -20 42 -20 48 0 7 -9 23 -20 37 -11 14 -20 33 -20 43 0 9
-9 27 -20 40 -11 13 -20 31 -20 40 0 9 -9 27 -20 40 -11 13 -20 31 -20 40 0 9
-9 27 -20 40 -11 13 -20 29 -20 36 0 11 -65 149 -91 194 -5 8 -14 26 -20 40
-6 14 -15 32 -20 40 -5 8 -14 26 -20 40 -6 14 -15 32 -20 40 -5 8 -14 26 -20
40 -6 14 -15 32 -20 40 -5 8 -14 26 -20 40 -6 14 -15 32 -20 40 -5 8 -14 26
-20 40 -6 14 -15 32 -20 40 -5 8 -14 26 -20 40 -6 14 -15 32 -20 40 -5 8 -14
26 -20 40 -6 14 -24 51 -40 83 -16 32 -29 60 -29 63 0 7 107 54 124 54 50 0
279 123 381 204 207 166 391 465 435 707 5 26 16 68 24 93 9 26 16 62 16 80 0
19 8 69 18 112 26 119 26 1075 -1 1239 -24 151 -55 290 -78 350 -10 28 -19 56
-19 62 0 18 -69 169 -108 238 -86 150 -224 298 -360 387 -93 60 -104 67 -132
79 -14 6 -42 19 -62 30 -20 10 -42 19 -48 19 -7 0 -26 7 -43 15 -37 17 -121
42 -192 57 -27 5 -79 16 -115 25 -164 37 -369 42 -1732 43 l-1317 0 -11 -19z
m2202 -1591 c43 -10 87 -25 100 -34 12 -9 30 -16 39 -16 22 0 99 -84 99 -108
0 -11 8 -30 18 -43 33 -43 52 -171 52 -341 0 -320 -69 -455 -290 -565 -25 -12
-52 -23 -60 -23 -8 0 -28 -7 -44 -15 -16 -8 -52 -19 -80 -24 -28 -5 -69 -16
-91 -25 -22 -8 -51 -15 -65 -16 -13 0 -48 -10 -76 -21 -29 -12 -59 -19 -68
-16 l-16 6 0 624 c0 343 3 627 7 630 16 16 397 5 475 -13z"/></svg>